<?xml version="1.0" encoding="UTF-8" standalone="no"?>
<!DOCTYPE svg PUBLIC "-//W3C//DTD SVG 1.1//EN" "http://www.w3.org/Graphics/SVG/1.1/DTD/svg11.dtd">
<svg width="100%" height="100%" viewBox="0 0 300 32" version="1.1" xmlns="http://www.w3.org/2000/svg" xmlns:xlink="http://www.w3.org/1999/xlink" xml:space="preserve" xmlns:serif="http://www.serif.com/" style="fill-rule:evenodd;clip-rule:evenodd;stroke-linejoin:round;stroke-miterlimit:2;">
    <g transform="matrix(1,0,0,1,30.7858,25.0974)">
        <path d="M0,-18.352L3.545,-18.352L11.209,0L7.064,0L1.746,-13.139L-3.598,0L-7.664,0L0,-18.352Z" style="fill:white;fill-rule:nonzero;"/>
    </g>
    <g transform="matrix(1,0,0,1,13.399,17.433)">
        <path d="M0,-2.919L0,3.363C-0.852,4.162 -2.077,4.562 -3.676,4.562C-5.344,4.562 -6.743,4.024 -7.873,2.946C-9.003,1.869 -9.567,0.427 -9.567,-1.381C-9.567,-3.206 -8.985,-4.666 -7.821,-5.76C-6.656,-6.872 -5.145,-7.429 -3.285,-7.429C-1.495,-7.429 0.243,-6.907 1.929,-5.865L1.929,-9.566C0.382,-10.487 -1.443,-10.948 -3.545,-10.948C-6.413,-10.948 -8.768,-10.062 -10.61,-8.289C-12.469,-6.516 -13.399,-4.239 -13.399,-1.459C-13.399,1.287 -12.469,3.563 -10.61,5.37C-8.768,7.142 -6.456,8.029 -3.676,8.029C-2.164,8.029 -0.73,7.751 0.625,7.195C1.929,6.656 2.972,5.97 3.753,5.136L3.753,-2.919L0,-2.919Z" style="fill:white;fill-rule:nonzero;"/>
    </g>
    <g transform="matrix(1,0,0,1,52.2652,6.8501)">
        <path d="M0,18.247L-3.754,18.247L-3.754,0L-0.026,0L5.266,7.56L10.557,0L14.259,0L14.259,18.247L10.557,18.247L10.557,5.761L6.36,11.626L4.275,11.626L0,5.761L0,18.247Z" style="fill:white;fill-rule:nonzero;"/>
    </g>
    <g transform="matrix(1,0,0,1,78.2286,14.8525)">
        <path d="M0,2.242L0,7.012L4.718,7.012C5.657,7.012 6.386,6.808 6.908,6.4C7.429,5.991 7.69,5.405 7.69,4.64C7.69,3.875 7.429,3.285 6.908,2.868C6.386,2.451 5.657,2.242 4.718,2.242L0,2.242ZM0,-4.874L0,-0.86L4.223,-0.86C5.005,-0.86 5.617,-1.034 6.061,-1.381C6.504,-1.728 6.725,-2.216 6.725,-2.841C6.725,-3.484 6.504,-3.984 6.061,-4.34C5.617,-4.696 5.005,-4.874 4.223,-4.874L0,-4.874ZM5.422,10.245L-3.754,10.245L-3.754,-8.003L4.823,-8.003C6.508,-8.003 7.85,-7.602 8.85,-6.803C9.849,-6.004 10.349,-4.883 10.349,-3.44C10.349,-2.555 10.131,-1.798 9.697,-1.173C9.263,-0.547 8.715,-0.095 8.055,0.183C9.046,0.392 9.914,0.93 10.662,1.799C11.392,2.651 11.756,3.737 11.756,5.057C11.756,6.604 11.183,7.855 10.036,8.811C8.906,9.767 7.368,10.245 5.422,10.245" style="fill:white;fill-rule:nonzero;"/>
    </g>
    <g transform="matrix(1,0,0,1,110.057,6.8501)">
        <path d="M0,18.247L-13.008,18.247L-13.008,0L-9.254,0L-9.254,14.884L0,14.884L0,18.247Z" style="fill:white;fill-rule:nonzero;"/>
    </g>
    <g transform="matrix(1,0,0,1,130.363,6.8501)">
        <path d="M0,18.247L-13.686,18.247L-13.686,0L-0.287,0L-0.287,3.363L-9.932,3.363L-9.932,6.882L-2.164,6.882L-2.164,10.192L-9.932,10.192L-9.932,14.884L0,14.884L0,18.247Z" style="fill:white;fill-rule:nonzero;"/>
    </g>
    <g transform="matrix(1,0,0,1,141.025,21.8117)">
        <path d="M0,-11.677L0,-7.246L4.483,-7.246C5.334,-7.246 5.999,-7.437 6.477,-7.819C6.955,-8.201 7.195,-8.748 7.195,-9.461C7.195,-10.156 6.955,-10.699 6.477,-11.09C5.999,-11.481 5.334,-11.677 4.483,-11.677L0,-11.677ZM0,3.285L-3.754,3.285L-3.754,-14.962L4.691,-14.962C6.637,-14.962 8.167,-14.457 9.28,-13.45C10.409,-12.459 10.973,-11.164 10.973,-9.566C10.973,-8.349 10.639,-7.293 9.971,-6.399C9.301,-5.503 8.375,-4.873 7.195,-4.508L12.825,3.285L8.471,3.285L3.154,-4.091L0,-4.091L0,3.285Z" style="fill:white;fill-rule:nonzero;"/>
    </g>
    <g transform="matrix(1,0,0,1,166.258,6.4847)">
        <path d="M0,18.977C-2.746,18.977 -5.057,18.325 -6.934,17.022L-6.934,13.112C-6.17,13.773 -5.162,14.346 -3.91,14.833C-2.642,15.302 -1.391,15.537 -0.156,15.537C0.869,15.537 1.712,15.35 2.372,14.976C3.032,14.602 3.363,14.085 3.363,13.425C3.363,12.713 3.05,12.208 2.424,11.913C2.164,11.757 1.816,11.6 1.382,11.444L0.756,11.236L-0.704,10.793L-2.06,10.349C-2.251,10.297 -2.659,10.15 -3.285,9.906C-3.823,9.698 -4.214,9.515 -4.457,9.359C-5.361,8.733 -5.935,8.203 -6.178,7.769C-6.595,6.935 -6.804,6.083 -6.804,5.214C-6.804,3.598 -6.187,2.33 -4.953,1.408C-3.719,0.47 -2.042,0 0.078,0C2.216,0 4.205,0.505 6.047,1.513L6.047,5.162C4.188,4.015 2.216,3.442 0.13,3.442C-1.938,3.442 -2.972,4.041 -2.972,5.24C-2.972,5.761 -2.651,6.178 -2.008,6.491C-1.626,6.7 -1.13,6.882 -0.522,7.039C0.295,7.265 0.956,7.456 1.459,7.612C2.972,8.081 4.292,8.716 5.422,9.515C6.638,10.367 7.246,11.635 7.246,13.321C7.246,15.076 6.56,16.458 5.188,17.466C3.814,18.473 2.085,18.977 0,18.977" style="fill:white;fill-rule:nonzero;"/>
    </g>
    <g transform="matrix(1,0,0,1,194.853,6.8501)">
        <path d="M0,18.247L-3.753,18.247L-3.753,0L0,0L0,7.195L6.725,0L11.314,0L3.572,8.368L12.643,18.247L7.847,18.247L0,9.828L0,18.247Z" style="fill:white;fill-rule:nonzero;"/>
    </g>
    <g transform="matrix(1,0,0,1,217.089,6.8501)">
        <path d="M0,18.247L-3.675,18.247L-3.675,0L-0.47,0L8.732,11.678L8.732,0L12.382,0L12.382,18.247L9.28,18.247L0,6.517L0,18.247Z" style="fill:white;fill-rule:nonzero;"/>
    </g>
    <g transform="matrix(1,0,0,1,282.483,6.7982)">
        <path d="M0,18.403L-3.311,18.403L-9.437,0.052L-5.266,0.052L-1.512,12.356L2.607,0L5.527,0L9.671,12.356L13.425,0.052L17.517,0.052L11.366,18.403L8.055,18.403L4.066,6.23L0,18.403Z" style="fill:white;fill-rule:nonzero;"/>
    </g>
    <g transform="matrix(1,0,0,1,252.38,27.967)">
        <path d="M0,-23.988C-6.614,-23.988 -11.995,-18.607 -11.995,-11.994C-11.995,-5.38 -6.614,0.001 0,0.001C6.614,0.001 11.995,-5.38 11.995,-11.994C11.995,-18.607 6.614,-23.988 0,-23.988M0,3.979C-8.808,3.979 -15.974,-3.186 -15.974,-11.994C-15.974,-20.802 -8.808,-27.967 0,-27.967C8.808,-27.967 15.974,-20.802 15.974,-11.994C15.974,-3.186 8.808,3.979 0,3.979" style="fill:rgb(70,230,90);fill-rule:nonzero;"/>
    </g>
    <g transform="matrix(0,-1,-1,0,262.277,4.1149)">
        <path d="M-1.988,-1.988C-3.086,-1.988 -3.976,-1.098 -3.976,0C-3.976,1.098 -3.086,1.988 -1.988,1.988C-0.89,1.988 0,1.098 0,0C0,-1.098 -0.89,-1.988 -1.988,-1.988" style="fill-rule:nonzero;"/>
    </g>
</svg>
