<?xml version="1.0" encoding="UTF-8" standalone="no"?>
<!DOCTYPE svg PUBLIC "-//W3C//DTD SVG 1.1//EN" "http://www.w3.org/Graphics/SVG/1.1/DTD/svg11.dtd">
<svg width="100%" height="100%" viewBox="0 0 766 64" version="1.1" xmlns="http://www.w3.org/2000/svg" xmlns:xlink="http://www.w3.org/1999/xlink" xml:space="preserve" xmlns:serif="http://www.serif.com/" style="fill-rule:evenodd;clip-rule:evenodd;stroke-miterlimit:10;">
    <g transform="matrix(1,0,0,1,551.37,41.6651)">
        <path d="M0,2.075L0,6.557L3.486,6.557C4.814,6.64 5.976,5.727 6.059,4.399L6.059,4.316C6.059,2.905 4.897,1.992 3.154,1.992L0,2.075ZM0,-4.482L0,-0.498L3.237,-0.498C4.399,-0.415 5.478,-1.245 5.561,-2.407L5.561,-2.573C5.561,-3.652 4.482,-4.482 2.988,-4.482L0,-4.482ZM-4.648,-7.139L1.66,-7.139C4.482,-7.139 5.478,-7.056 6.308,-6.724C7.886,-5.977 8.799,-4.482 8.799,-2.739C8.799,-1.079 8.301,-0.249 6.641,0.581C8.384,1.162 9.546,2.822 9.38,4.648C9.38,7.387 7.222,9.214 4.067,9.214L-4.648,9.214L-4.648,6.557L-3.403,6.557L-3.403,-4.482L-4.648,-4.482L-4.648,-7.139Z" style="fill:white;fill-rule:nonzero;"/>
    </g>
    <g transform="matrix(1,0,0,1,571.374,46.148)">
        <path d="M0,-2.989C0,-4.4 -1.162,-5.479 -2.49,-5.479L-2.573,-5.479C-3.984,-5.479 -5.146,-4.4 -5.395,-3.072L0,-2.989ZM3.154,0.663C2.573,3.402 0.332,5.063 -2.656,5.063C-6.142,5.063 -8.716,2.323 -8.716,-1.495C-8.716,-5.313 -6.142,-8.052 -2.656,-8.052C-0.747,-8.052 1.079,-7.139 2.158,-5.479C2.988,-4.068 3.486,-2.491 3.403,-0.831L-5.561,-0.831C-5.229,2.406 -3.154,2.572 -2.573,2.572C-1.411,2.655 -0.332,1.825 0,0.746L3.154,0.663Z" style="fill:white;fill-rule:nonzero;"/>
    </g>
    <g transform="matrix(1,0,0,1,584.904,42.578)">
        <path d="M0,0.166L5.727,0.166L5.727,8.301L3.901,8.301L3.901,5.727C3.569,6.308 3.154,6.806 2.656,7.305C1.577,8.218 0.249,8.716 -1.079,8.716C-4.897,8.716 -7.885,4.98 -7.885,0.166C-7.885,-4.648 -4.897,-8.467 -1.162,-8.467C0.913,-8.55 2.739,-7.388 3.735,-5.644L3.735,-8.218L5.478,-8.218L5.478,-2.988L3.652,-2.988C3.486,-3.735 3.154,-4.399 2.739,-4.98C1.909,-6.059 0.581,-6.723 -0.747,-6.806C-2.739,-6.806 -5.727,-5.063 -5.727,-0C-5.727,3.984 -3.569,6.889 -0.747,6.889C1.494,6.806 3.32,5.146 3.735,2.988C3.818,2.573 3.818,2.075 3.818,1.66L-0.083,1.66L0,0.166Z" style="fill:white;fill-rule:nonzero;"/>
    </g>
    <g transform="matrix(1,0,0,1,601.007,45.1511)">
        <path d="M0,-0.664L-1.162,-0.498C-4.98,0 -6.225,0.664 -6.225,2.241C-6.142,3.652 -4.98,4.648 -3.652,4.648C-1.826,4.565 -0.249,3.237 0,1.411L0,-0.664ZM3.569,5.81L0,5.81L0,3.569C-0.83,5.146 -2.49,6.059 -4.233,6.059C-6.308,6.225 -8.135,4.565 -8.301,2.49L-8.301,2.241C-8.301,-0.166 -6.225,-1.328 -1.245,-1.826L-0.083,-1.909L-0.083,-3.154C-0.083,-4.565 -1.162,-5.478 -2.905,-5.478C-4.648,-5.478 -5.561,-4.897 -5.893,-3.237L-7.803,-3.237C-7.637,-4.233 -7.139,-5.146 -6.391,-5.81C-5.478,-6.557 -4.233,-6.889 -3.071,-6.889C-0.498,-6.889 1.66,-5.727 1.66,-2.573L1.66,4.316L3.403,4.316L3.569,5.81Z" style="fill:white;fill-rule:nonzero;"/>
    </g>
    <g transform="matrix(1,0,0,1,609.806,48.3058)">
        <path d="M0,-7.554C0.581,-8.384 1.66,-10.127 3.984,-10.127C5.644,-10.127 6.557,-9.297 6.889,-7.554C7.221,-8.135 7.553,-8.633 8.052,-9.131C8.799,-9.795 9.712,-10.21 10.708,-10.21C12.617,-10.21 13.696,-8.965 13.696,-6.807L13.696,1.079L15.439,1.079L15.439,2.573L11.953,2.573L11.953,-6.143C11.953,-7.886 11.372,-8.716 10.127,-8.716C7.969,-8.716 6.806,-6.143 6.806,-5.23L6.806,1.079L8.633,1.079L8.633,2.573L4.98,2.573L4.98,-6.392C4.98,-7.969 4.399,-8.633 3.154,-8.633C1.245,-8.633 -0.166,-6.226 -0.166,-5.064L-0.166,1.162L1.66,1.162L1.66,2.656L-3.735,2.656L-3.735,1.162L-1.909,1.162L-1.909,-8.467L-3.735,-8.467L-3.735,-9.961L-0.083,-9.961L0,-7.554Z" style="fill:white;fill-rule:nonzero;"/>
    </g>
    <g transform="matrix(1,0,0,1,630.64,39.2572)">
        <path d="M0,6.392C0,8.467 1.577,10.127 3.569,10.293C5.727,10.293 7.055,8.384 7.055,5.313C7.055,2.242 5.644,0.416 3.569,0.416C1.743,0.416 -0.083,2.408 -0.083,4.234L0,6.392ZM-3.486,-5.478L0,-5.478L0,1.744C0.498,0.831 1.909,-0.996 4.067,-0.996C6.889,-0.996 9.048,1.91 9.048,5.562C9.048,8.965 6.723,11.87 4.067,11.87C1.826,11.87 0.747,10.376 0,9.38L0,11.704L-3.569,11.704L-3.569,10.21L-1.826,10.21L-1.826,-3.984L-3.486,-3.984L-3.486,-5.478Z" style="fill:white;fill-rule:nonzero;"/>
    </g>
    <g transform="matrix(1,0,0,1,640.753,50.9613)">
        <path d="M0,-17.182L3.569,-17.182L3.569,-1.494L5.229,-1.494L5.229,0L-0.083,0L-0.083,-1.494L1.743,-1.494L1.743,-15.771L0,-15.771L0,-17.182Z" style="fill:white;fill-rule:nonzero;"/>
    </g>
    <g transform="matrix(1,0,0,1,656.358,45.816)">
        <path d="M0,-2.159C0,-3.321 -0.415,-4.4 -1.245,-5.313C-1.826,-5.811 -2.573,-6.143 -3.32,-6.06C-4.897,-5.977 -6.225,-4.898 -6.64,-3.404C-6.724,-2.989 -6.889,-2.574 -6.889,-2.159L0,-2.159ZM1.826,1.659C1.66,2.406 1.328,2.987 0.83,3.568C-0.166,4.73 -1.577,5.395 -3.154,5.395C-6.557,5.395 -8.965,2.738 -8.965,-1.08C-8.965,-4.732 -6.557,-7.554 -3.486,-7.554C-0.415,-7.554 2.075,-5.147 2.075,-0.748L-6.972,-0.748C-6.806,1.078 -6.391,2.157 -5.561,2.987C-4.897,3.568 -4.067,3.9 -3.237,3.9C-1.826,3.9 -0.913,3.236 -0.249,1.742L1.826,1.659Z" style="fill:white;fill-rule:nonzero;"/>
    </g>
    <g transform="matrix(1,0,0,1,668.062,47.8906)">
        <path d="M0,-10.293L-2.158,-2.988L2.158,-2.988L0,-10.293ZM-1.992,-13.364L1.992,-13.364L6.557,0.415L7.802,0.415L7.802,3.071L4.067,3.071L2.988,-0.498L-2.822,-0.498L-3.901,3.071L-7.72,3.071L-7.72,0.415L-6.474,0.415L-1.992,-13.364Z" style="fill:white;fill-rule:nonzero;"/>
    </g>
    <g transform="matrix(1,0,0,1,675.698,50.8787)">
        <path d="M0,-12.451L4.98,-12.451L4.98,-10.044L3.735,-10.044L5.478,-2.656L7.553,-12.451L10.791,-12.451L12.866,-2.822L14.526,-10.044L13.281,-10.044L13.281,-12.451L18.261,-12.451L18.261,-10.044L17.182,-10.044L14.526,0L11.206,0L9.131,-8.633L7.138,0L3.818,0L1.079,-10.044L0,-10.044L0,-12.451Z" style="fill:white;fill-rule:nonzero;"/>
    </g>
    <g transform="matrix(1,0,0,1,702.758,44.4041)">
        <path d="M0,0.664C-2.905,0.913 -4.814,1.162 -4.814,2.905C-4.814,3.901 -3.984,4.565 -2.739,4.565C-1.245,4.565 0,3.403 0.083,1.909L0.083,0.664L0,0.664ZM2.988,4.15L4.067,4.15L4.067,6.557L0.166,6.557L0.166,5.063C-0.747,6.225 -2.158,6.806 -3.652,6.806C-6.142,6.806 -8.052,5.146 -8.052,2.905C-8.052,-0.747 -3.901,-1.162 0.083,-1.494C0.083,-3.403 -0.581,-3.984 -2.158,-3.984C-3.735,-3.984 -4.316,-3.237 -4.399,-2.075L-4.399,-1.992L-7.388,-2.075C-7.222,-4.565 -5.229,-6.142 -2.241,-6.142C1.245,-6.142 3.071,-4.565 3.071,-1.743L2.988,4.15Z" style="fill:white;fill-rule:nonzero;"/>
    </g>
    <g transform="matrix(1,0,0,1,712.711,48.6378)">
        <path d="M0,-8.218C0.83,-9.795 1.743,-10.459 3.154,-10.459C3.652,-10.459 4.067,-10.376 4.565,-10.293L4.565,-7.388C4.067,-7.471 3.569,-7.554 3.071,-7.554C1.494,-7.637 0.166,-6.475 0.083,-4.981L0.083,-0.166L1.577,-0.166L1.577,2.241L-4.233,2.241L-4.233,-0.166L-2.988,-0.166L-2.988,-7.803L-4.233,-7.803L-4.233,-10.21L0,-10.21L0,-8.218Z" style="fill:white;fill-rule:nonzero;"/>
    </g>
    <g transform="matrix(1,0,0,1,726.573,46.148)">
        <path d="M0,-2.989C0,-4.4 -1.162,-5.479 -2.49,-5.479L-2.573,-5.479C-3.984,-5.479 -5.146,-4.4 -5.395,-3.072L0,-2.989ZM3.237,0.663C2.656,3.402 0.415,5.063 -2.573,5.063C-6.059,5.063 -8.633,2.323 -8.633,-1.495C-8.633,-5.313 -6.059,-8.052 -2.573,-8.052C-0.664,-8.052 1.162,-7.139 2.241,-5.479C3.071,-4.068 3.569,-2.491 3.486,-0.831L-5.478,-0.831C-5.146,2.406 -3.071,2.572 -2.49,2.572C-1.328,2.655 -0.249,1.825 0.083,0.746L3.237,0.663Z" style="fill:white;fill-rule:nonzero;"/>
    </g>
    <g transform="matrix(1,0,0,1,761.791,29.4272)">
        <path d="M0,-0.388C0.118,-0.408 0.22,-0.446 0.309,-0.503C0.397,-0.56 0.468,-0.636 0.52,-0.732C0.573,-0.828 0.6,-0.952 0.6,-1.105C0.6,-1.317 0.541,-1.49 0.423,-1.623C0.306,-1.755 0.116,-1.822 -0.147,-1.822L-1.534,-1.822L-1.534,-0.359L-0.37,-0.359C-0.241,-0.359 -0.118,-0.369 0,-0.388M-0.118,-2.292C0.282,-2.292 0.595,-2.195 0.82,-1.999C1.045,-1.803 1.157,-1.534 1.157,-1.194C1.157,-0.938 1.1,-0.715 0.985,-0.523C0.869,-0.331 0.684,-0.2 0.429,-0.129L0.429,-0.118C0.55,-0.095 0.649,-0.056 0.726,-0.001C0.802,0.055 0.863,0.12 0.908,0.196C0.953,0.273 0.986,0.358 1.008,0.452C1.029,0.546 1.047,0.644 1.058,0.746C1.066,0.848 1.072,0.952 1.076,1.057C1.08,1.163 1.089,1.267 1.105,1.369C1.12,1.471 1.143,1.568 1.173,1.66C1.202,1.752 1.246,1.833 1.305,1.904L0.682,1.904C0.643,1.861 0.616,1.801 0.602,1.728C0.589,1.653 0.58,1.57 0.576,1.477C0.572,1.386 0.568,1.287 0.564,1.181C0.56,1.075 0.549,0.971 0.529,0.869C0.513,0.767 0.494,0.671 0.47,0.578C0.447,0.487 0.409,0.406 0.358,0.337C0.308,0.269 0.241,0.214 0.159,0.173C0.076,0.132 -0.033,0.111 -0.17,0.111L-1.534,0.111L-1.534,1.904L-2.092,1.904L-2.092,-2.292L-0.118,-2.292Z" style="fill:white;fill-rule:nonzero;"/>
    </g>
    <g transform="matrix(1,0,0,1,761.268,32.7837)">
        <path d="M0,-6.807C-1.877,-6.807 -3.403,-5.28 -3.403,-3.404C-3.403,-1.527 -1.877,-0 0,-0C1.877,-0 3.403,-1.527 3.403,-3.404C3.403,-5.28 1.877,-6.807 0,-6.807M0,0.664C-2.243,0.664 -4.067,-1.161 -4.067,-3.404C-4.067,-5.646 -2.243,-7.471 0,-7.471C2.243,-7.471 4.067,-5.646 4.067,-3.404C4.067,-1.161 2.243,0.664 0,0.664" style="fill:white;fill-rule:nonzero;"/>
    </g>
    <g transform="matrix(1,0,0,1,-572.267,-76.5352)">
        <rect x="1303.82" y="125.853" width="1.551" height="1.518" style="fill:white;"/>
    </g>
    <g transform="matrix(1,0,0,1,738.553,42.8299)">
        <path d="M0,7.088C1.701,7.088 2.718,5.721 2.718,3.469C2.718,1.352 1.651,0.001 0,0.001C-1.618,0.001 -2.618,1.352 -2.618,3.536C-2.618,5.771 -1.634,7.088 0,7.088M-4.069,3.503C-4.069,0.768 -2.385,-1.117 0.05,-1.117C2.435,-1.117 4.169,0.835 4.169,3.503C4.169,6.288 2.468,8.205 0.017,8.205C-2.418,8.205 -4.069,6.304 -4.069,3.503" style="fill:white;fill-rule:nonzero;"/>
    </g>
    <g transform="matrix(1,0,0,1,746.224,48.6175)">
        <path d="M0,-4.703C0.433,-5.637 0.667,-5.92 1.067,-6.304C1.534,-6.704 2.118,-6.921 2.701,-6.921C2.918,-6.921 3.218,-6.888 3.669,-6.821L3.669,-5.503C3.218,-5.587 2.952,-5.62 2.718,-5.62C0.283,-5.62 0,-3.102 0,-2.969L0,1.167L1.534,1.167L1.534,2.218L-2.568,2.218L-2.568,1.167L-1.284,1.167L-1.284,-5.704L-2.618,-5.704L-2.618,-6.771L0,-6.771L0,-4.703Z" style="fill:white;fill-rule:nonzero;"/>
    </g>
    <g transform="matrix(1,0,0,1,756.93,50.2352)">
        <path d="M0,-5.07C0,-6.054 -1.201,-7.455 -2.568,-7.455C-4.036,-7.455 -4.936,-6.254 -4.936,-4.303C-4.936,-2.319 -4.019,-1.118 -2.485,-1.118C-1.167,-1.118 0,-2.402 0,-3.452L0,-5.07ZM0,-1.601C-0.817,-0.451 -1.718,-0.067 -2.701,-0.067C-4.853,-0.067 -6.337,-1.835 -6.337,-4.386C-6.337,-6.804 -4.886,-8.522 -2.852,-8.522C-1.201,-8.522 -0.467,-7.471 0,-6.788L0,-8.389L2.535,-8.389L2.535,-7.321L1.284,-7.321L1.284,0.05C1.284,2.217 -0.1,3.452 -2.535,3.452C-4.019,3.452 -5.286,2.801 -5.887,1.751C-6.003,1.534 -6.103,1.317 -6.254,0.867L-4.803,0.867C-4.269,1.951 -3.635,2.351 -2.435,2.351C-0.917,2.351 0,1.567 0,0.266L0,-1.601Z" style="fill:white;fill-rule:nonzero;"/>
    </g>
    <g transform="matrix(0,-1,-1,0,31.9088,10.1298)">
        <ellipse cx="-21.779" cy="0" rx="21.778" ry="21.778" style="fill:none;stroke:white;stroke-width:2.02px;"/>
    </g>
    <g transform="matrix(1,0,0,1,22.1782,38.2219)">
        <path d="M0,-12.627L2.164,-12.627L2.164,0L-0.324,0L-0.324,-9.994L-2.706,-9.326L-3.319,-11.454L0,-12.627Z" style="fill:white;fill-rule:nonzero;"/>
    </g>
    <g transform="matrix(1,0,0,1,30.7637,36.1301)">
        <path d="M0,-8.443C-0.487,-8.443 -0.866,-8.317 -1.173,-8.046C-1.48,-7.775 -1.623,-7.415 -1.623,-6.963C-1.623,-6.513 -1.48,-6.134 -1.173,-5.863C-0.866,-5.593 -0.487,-5.467 0,-5.467C0.487,-5.467 0.865,-5.593 1.172,-5.863C1.479,-6.134 1.623,-6.513 1.623,-6.963C1.623,-7.415 1.479,-7.775 1.172,-8.046C0.865,-8.317 0.487,-8.443 0,-8.443M0,-3.482C-1.227,-3.482 -2.057,-2.833 -2.057,-1.75C-2.057,-0.65 -1.227,-0.001 0,-0.001C1.227,-0.001 2.056,-0.65 2.056,-1.75C2.056,-2.833 1.227,-3.482 0,-3.482M4.528,-1.426C4.528,0.901 2.796,2.345 0,2.345C-2.814,2.345 -4.528,0.901 -4.528,-1.426C-4.528,-2.761 -3.95,-3.771 -2.796,-4.475C-3.68,-5.106 -4.113,-5.99 -4.113,-7.09C-4.113,-8.262 -3.716,-9.164 -2.94,-9.813C-2.146,-10.463 -1.173,-10.788 0,-10.788C1.172,-10.788 2.146,-10.463 2.922,-9.813C3.697,-9.164 4.095,-8.262 4.095,-7.09C4.095,-5.972 3.662,-5.106 2.778,-4.475C3.95,-3.771 4.528,-2.761 4.528,-1.426" style="fill:white;fill-rule:nonzero;"/>
    </g>
    <g transform="matrix(1,0,0,1,44.9584,33.009)">
        <path d="M0,-2.201L0,-0.018L-2.976,-0.018L-2.976,2.958L-5.159,2.958L-5.159,-0.018L-8.117,-0.018L-8.117,-2.201L-5.159,-2.201L-5.159,-5.159L-2.976,-5.159L-2.976,-2.201L0,-2.201Z" style="fill:white;fill-rule:nonzero;"/>
    </g>
    <g transform="matrix(1,0,0,1,92.1826,20.3376)">
        <path d="M0,13.712C-0.762,13.987 -1.566,14.178 -2.412,14.304C-3.259,14.431 -4.19,14.495 -5.227,14.495C-7.385,14.495 -9.395,13.797 -10.877,12.527C-12.337,11.279 -13.268,9.48 -13.268,7.321C-13.268,4.909 -12.421,2.878 -10.919,1.46C-9.417,0.042 -7.279,-0.783 -4.719,-0.783C-3.767,-0.783 -2.899,-0.698 -2.116,-0.529C-1.333,-0.381 -0.635,-0.148 0,0.148L-0.825,2.412C-1.037,2.243 -1.481,1.947 -2.158,1.693C-2.814,1.46 -3.724,1.248 -4.867,1.248C-6.644,1.248 -8.02,1.799 -8.972,2.772C-9.924,3.745 -10.411,5.142 -10.411,6.835C-10.411,8.633 -9.776,10.072 -8.803,11.067C-7.829,12.061 -6.496,12.59 -5.121,12.59C-4.613,12.59 -4.19,12.569 -3.83,12.527C-3.449,12.485 -3.132,12.4 -2.857,12.294C-2.814,11.892 -2.793,11.321 -2.772,10.75L-2.751,9.226L-2.772,7.893C-2.793,7.491 -2.814,7.131 -2.857,6.771L0,6.771L-0.042,8.147L-0.042,11.617L0,13.627" style="fill:white;"/>
    </g>
    <g transform="matrix(1,0,0,1,102.107,34.4937)">
        <path d="M0,-14.918L2.793,-7.596L5.988,0L2.857,0L2.539,-0.804L2.222,-1.65L1.714,-2.878L1.248,-4.126L-4.825,-4.126L-5.333,-2.878L-5.862,-1.693L-6.221,-0.825C-6.348,-0.529 -6.475,-0.254 -6.539,0L-9.226,0L-5.946,-7.152L-2.56,-14.918L0,-14.918ZM-4.042,-6.115L0.656,-6.115L-0.55,-9.247L-1.566,-12.188L-2.264,-10.39L-3.068,-8.422L-3.555,-7.279" style="fill:white;"/>
    </g>
    <g transform="matrix(1,0,0,1,122.971,19.5759)">
        <path d="M0,14.77L-0.085,8.866L-0.317,3.28L-0.741,4.422L-1.227,5.734L-2.878,10.369L-4.486,14.791L-6.983,14.791L-9.014,8.803L-10.813,3.301L-11.363,8.909L-11.702,14.791L-14.241,14.791C-13.881,12.273 -13.606,9.84 -13.395,7.385L-12.95,0L-9.565,0L-8.337,3.788L-6.962,7.66L-6.2,9.882L-5.502,11.956L-3.301,6.052L-1.185,-0.021L2.095,-0.021C2.095,2.095 2.18,4.571 2.328,7.131L2.899,14.749" style="fill:white;"/>
    </g>
    <g transform="matrix(1,0,0,1,135.012,27.5525)">
        <path d="M0,-1.163C1.037,-0.951 1.883,-0.507 2.455,0.107C3.026,0.72 3.365,1.482 3.365,2.371C3.365,3.81 2.836,4.91 1.799,5.651C0.741,6.391 -0.825,6.793 -2.941,6.793L-7.533,6.793L-7.406,3.217L-7.385,-0.38L-7.406,-4.189L-7.533,-7.956L-2.984,-7.956C-1.185,-7.956 0.254,-7.617 1.227,-7.003C2.201,-6.39 2.73,-5.48 2.73,-4.358C2.73,-3.66 2.433,-2.962 1.947,-2.39C1.46,-1.819 0.783,-1.375 0,-1.163M-4.74,-6.03L-4.782,-4.02L-4.782,-1.819L-3.407,-1.819C-2.222,-1.819 -1.354,-2.009 -0.783,-2.39C-0.212,-2.75 0.063,-3.3 0.063,-4.02C0.063,-4.697 -0.169,-5.226 -0.719,-5.586C-1.27,-5.945 -2.116,-6.136 -3.322,-6.136L-4.042,-6.115C-4.296,-6.093 -4.55,-6.072 -4.74,-6.03M-3.259,4.868C-1.778,4.868 -0.804,4.656 -0.19,4.233C0.423,3.831 0.656,3.217 0.656,2.477C0.656,1.694 0.339,1.101 -0.317,0.72C-0.973,0.318 -1.968,0.128 -3.322,0.128L-4.803,0.128L-4.803,2.519L-4.761,4.889" style="fill:white;"/>
    </g>
    <g transform="matrix(1,0,0,1,142.397,23.3205)">
        <path d="M0,7.28L0.021,8.169L0.042,9.036L3.618,9.015L6.666,8.952L5.904,11.025L-2.772,11.025L-2.624,7.449L-2.624,0.022L-2.772,-3.745L0.106,-3.745L0.063,-2.327L0.042,-1.078L-0.021,1.228L-0.042,3.852L-0.021,5.651" style="fill:white;"/>
    </g>
    <g transform="matrix(1,0,0,1,150.671,19.5759)">
        <path d="M0,14.77L0.127,11.194L0.148,7.597L0.127,3.766L0,0L2.857,0L2.857,1.037L2.836,1.989L2.772,4.634L2.751,7.597L2.772,10.369L2.836,12.887L2.857,13.797L2.857,14.77" style="fill:white;"/>
    </g>
    <g transform="matrix(1,0,0,1,167.663,34.3457)">
        <path d="M0,-14.77L-0.085,-11.003L-0.085,-3.576L0,0L-2.56,0L-6.666,-6.2L-10.326,-11.49L-10.305,-5.332L-10.178,0L-12.76,0L-12.633,-3.576L-12.612,-7.173L-12.633,-11.003L-12.76,-14.77L-9.797,-14.77L-5.671,-9.057L-2.391,-4.211L-2.412,-9.818L-2.539,-14.77" style="fill:white;"/>
    </g>
    <g transform="matrix(1,0,0,1,182.496,20.3376)">
        <path d="M0,13.712C-0.762,13.987 -1.566,14.178 -2.412,14.304C-3.28,14.431 -4.19,14.495 -5.206,14.495C-7.364,14.495 -9.395,13.797 -10.877,12.527C-12.358,11.279 -13.289,9.48 -13.289,7.321C-13.289,4.909 -12.421,2.878 -10.919,1.46C-9.417,0.042 -7.279,-0.783 -4.698,-0.783C-3.745,-0.783 -2.899,-0.698 -2.116,-0.529C-1.333,-0.381 -0.614,-0.148 0.021,0.148L-0.804,2.391C-1.122,2.074 -1.693,1.799 -2.391,1.587C-3.089,1.375 -3.936,1.248 -4.761,1.248C-6.581,1.248 -7.999,1.799 -8.951,2.772C-9.903,3.745 -10.39,5.142 -10.39,6.835C-10.39,8.633 -9.755,10.072 -8.782,11.067C-7.808,12.061 -6.475,12.59 -5.079,12.59C-4.571,12.59 -4.169,12.569 -3.788,12.527C-3.428,12.485 -3.111,12.4 -2.836,12.294C-2.793,11.892 -2.772,11.321 -2.751,10.749L-2.73,9.226L-2.751,7.893C-2.772,7.491 -2.793,7.131 -2.836,6.771L0.042,6.771C0.021,7.195 0,7.66 0,8.147L0,11.617L0.042,13.627" style="fill:white;"/>
    </g>
    <g transform="matrix(1,0,0,1,78.9148,45.6461)">
        <path d="M0,0.846C0,-1.651 0.91,-3.661 2.391,-5.058C3.872,-6.433 5.925,-7.195 8.189,-7.195C9.141,-7.195 9.946,-7.153 10.644,-7.026C11.342,-6.899 11.956,-6.708 12.548,-6.433L11.66,-4.042C11.469,-4.317 11.046,-4.613 10.453,-4.846C9.861,-5.079 9.078,-5.248 8.168,-5.248C6.623,-5.248 5.29,-4.719 4.359,-3.746C3.428,-2.772 2.857,-1.355 2.857,0.423C2.857,2.116 3.428,3.533 4.38,4.507C5.333,5.48 6.666,6.052 8.168,6.052C8.866,6.052 9.501,5.988 10.094,5.819C10.686,5.649 11.236,5.417 11.786,5.057L12.591,6.94C11.871,7.342 11.152,7.617 10.369,7.787C9.586,7.956 8.718,8.041 7.724,8.041C5.523,8.041 3.597,7.321 2.201,6.052C0.846,4.761 0,2.962 0,0.846" style="fill:white;"/>
    </g>
    <g transform="matrix(1,0,0,1,99.356,53.6661)">
        <path d="M0,-15.215C2.328,-15.215 4.274,-14.474 5.65,-13.184C7.025,-11.893 7.808,-10.031 7.808,-7.809C7.808,-5.439 6.941,-3.492 5.544,-2.117C4.126,-0.762 2.18,0 0,0C-2.328,0 -4.296,-0.72 -5.671,-2.011C-7.047,-3.302 -7.851,-5.143 -7.851,-7.364C-7.851,-9.734 -7.004,-11.702 -5.608,-13.078C-4.169,-14.453 -2.222,-15.215 0,-15.215M0,-1.926C1.46,-1.926 2.666,-2.497 3.534,-3.492C4.38,-4.487 4.867,-5.904 4.867,-7.618C4.867,-9.332 4.359,-10.75 3.513,-11.723C2.645,-12.718 1.439,-13.268 0,-13.268C-1.524,-13.268 -2.73,-12.697 -3.576,-11.702C-4.423,-10.708 -4.867,-9.29 -4.867,-7.618C-4.867,-5.925 -4.401,-4.508 -3.555,-3.492C-2.687,-2.497 -1.481,-1.926 0,-1.926" style="fill:white;"/>
    </g>
    <g transform="matrix(1,0,0,1,122.442,38.3031)">
        <path d="M0,14.77L-0.085,8.866L-0.317,3.301L-0.719,4.422L-1.206,5.713L-2.899,10.369L-4.507,14.77L-7.004,14.77L-9.036,8.782L-10.834,3.301L-11.363,8.887L-11.723,14.77L-14.262,14.77C-13.903,12.252 -13.627,9.818 -13.416,7.364L-12.971,0L-9.586,0L-8.358,3.809L-6.983,7.702L-6.2,9.924L-5.523,11.977L-3.301,6.094L-1.143,0L2.095,0C2.095,2.116 2.18,4.592 2.328,7.152L2.899,14.77" style="fill:white;"/>
    </g>
    <g transform="matrix(1,0,0,1,140.471,38.3031)">
        <path d="M0,14.77L-0.085,8.866L-0.317,3.301L-0.741,4.422L-1.227,5.713L-2.899,10.369L-4.507,14.77L-7.047,14.77L-9.057,8.782L-10.855,3.301L-11.406,8.887L-11.765,14.77L-14.262,14.77C-13.903,12.252 -13.628,9.818 -13.437,7.364L-12.993,0L-9.565,0L-8.358,3.809L-7.004,7.702L-6.2,9.924L-5.502,11.977L-3.301,6.094L-1.164,0L2.074,0C2.074,2.116 2.158,4.592 2.307,7.152L2.878,14.77" style="fill:white;"/>
    </g>
    <g transform="matrix(1,0,0,1,144.746,38.3031)">
        <path d="M0,14.77L0.127,11.236L0.148,7.639L0.127,3.788L0,0L2.857,0L2.73,3.788L2.709,7.639L2.73,11.236L2.857,14.77" style="fill:white;"/>
    </g>
    <g transform="matrix(1,0,0,1,158.246,50.5765)">
        <path d="M0,-9.163C-0.317,-9.438 -0.741,-9.713 -1.291,-9.925C-1.82,-10.136 -2.455,-10.263 -3.195,-10.263C-4.105,-10.263 -4.761,-10.073 -5.206,-9.755C-5.65,-9.438 -5.883,-8.973 -5.883,-8.444C-5.883,-7.999 -5.777,-7.618 -5.438,-7.259C-5.1,-6.899 -4.507,-6.539 -3.555,-6.116L-2.814,-5.798L-2.074,-5.481C-0.931,-4.973 -0.127,-4.423 0.381,-3.767C0.91,-3.111 1.143,-2.307 1.143,-1.291C1.143,0.148 0.55,1.227 -0.402,1.946C-1.375,2.666 -2.73,3.047 -4.274,3.047C-5.184,3.047 -6.052,2.983 -6.856,2.814C-7.66,2.666 -8.422,2.433 -9.141,2.094L-8.316,-0.064C-7.766,0.296 -7.11,0.613 -6.433,0.825C-5.756,1.036 -5.036,1.163 -4.338,1.163C-3.343,1.163 -2.666,0.931 -2.222,0.55C-1.799,0.169 -1.608,-0.36 -1.608,-0.931C-1.608,-1.461 -1.799,-1.905 -2.158,-2.286C-2.539,-2.667 -3.089,-3.005 -3.851,-3.344L-4.698,-3.746L-5.544,-4.127C-6.56,-4.592 -7.322,-5.121 -7.829,-5.756C-8.337,-6.391 -8.591,-7.132 -8.591,-8.084C-8.591,-9.269 -8.062,-10.306 -7.11,-11.025C-6.158,-11.766 -4.803,-12.21 -3.153,-12.21C-2.243,-12.21 -1.46,-12.125 -0.783,-11.999C-0.106,-11.872 0.444,-11.681 0.889,-11.427" style="fill:white;"/>
    </g>
    <g transform="matrix(1,0,0,1,169.25,50.5765)">
        <path d="M0,-9.163C-0.339,-9.438 -0.762,-9.713 -1.291,-9.925C-1.82,-10.136 -2.455,-10.263 -3.174,-10.263C-4.084,-10.263 -4.761,-10.073 -5.206,-9.755C-5.65,-9.438 -5.883,-8.973 -5.883,-8.444C-5.883,-7.999 -5.777,-7.618 -5.417,-7.259C-5.079,-6.899 -4.486,-6.539 -3.513,-6.116L-2.772,-5.798L-2.031,-5.481C-0.889,-4.973 -0.085,-4.423 0.423,-3.767C0.952,-3.111 1.185,-2.307 1.185,-1.291C1.185,0.148 0.593,1.227 -0.36,1.946C-1.333,2.666 -2.687,3.047 -4.232,3.047C-5.163,3.047 -6.031,2.983 -6.835,2.814C-7.639,2.666 -8.401,2.433 -9.099,2.094L-8.274,-0.064C-7.724,0.296 -7.089,0.613 -6.412,0.825C-5.735,1.036 -5.015,1.163 -4.296,1.163C-3.301,1.163 -2.624,0.931 -2.18,0.55C-1.756,0.169 -1.566,-0.36 -1.566,-0.931C-1.566,-1.461 -1.756,-1.905 -2.116,-2.286C-2.497,-2.667 -3.047,-3.005 -3.809,-3.344L-4.655,-3.746L-5.502,-4.127C-6.517,-4.592 -7.279,-5.121 -7.787,-5.756C-8.295,-6.391 -8.549,-7.132 -8.549,-8.084C-8.549,-9.269 -8.02,-10.306 -7.068,-11.025C-6.115,-11.766 -4.761,-12.21 -3.111,-12.21C-2.201,-12.21 -1.418,-12.125 -0.741,-11.999C-0.063,-11.872 0.487,-11.681 0.931,-11.427" style="fill:white;"/>
    </g>
    <g transform="matrix(1,0,0,1,171.895,38.3031)">
        <path d="M0,14.77L0.127,11.236L0.148,7.639L0.127,3.788L0,0L2.857,0L2.73,3.788L2.709,7.639L2.73,11.236L2.857,14.77" style="fill:white;"/>
    </g>
    <g transform="matrix(1,0,0,1,184.231,53.6661)">
        <path d="M0,-15.215C2.349,-15.215 4.296,-14.474 5.671,-13.184C7.047,-11.893 7.829,-10.031 7.829,-7.809C7.829,-5.439 6.983,-3.492 5.565,-2.117C4.148,-0.762 2.201,0 -0.021,0C-2.349,0 -4.296,-0.72 -5.671,-2.011C-7.047,-3.302 -7.829,-5.143 -7.829,-7.364C-7.829,-9.734 -6.983,-11.702 -5.586,-13.078C-4.19,-14.453 -2.243,-15.215 0,-15.215M0,-1.926C1.481,-1.926 2.687,-2.497 3.555,-3.492C4.401,-4.487 4.888,-5.904 4.888,-7.618C4.888,-9.332 4.38,-10.75 3.534,-11.723C2.666,-12.718 1.439,-13.268 0,-13.268C-1.502,-13.268 -2.73,-12.697 -3.555,-11.702C-4.401,-10.708 -4.867,-9.29 -4.867,-7.618C-4.867,-5.925 -4.38,-4.508 -3.534,-3.492C-2.687,-2.497 -1.46,-1.926 0,-1.926" style="fill:white;"/>
    </g>
    <g transform="matrix(1,0,0,1,205.879,53.0729)">
        <path d="M0,-14.77L-0.063,-10.982L-0.085,-7.131L-0.063,-3.534L0,0L-2.476,0L-6.644,-6.2L-10.305,-11.469L-10.305,-5.311L-10.157,0L-12.675,0L-12.675,-0.423L-12.591,-3.343L-12.527,-7.131L-12.569,-11.532L-12.675,-14.77L-9.755,-14.77L-5.629,-9.014L-2.349,-4.169L-2.37,-9.755L-2.497,-14.77" style="fill:white;"/>
    </g>
    <g transform="matrix(1,0,0,1,358.426,34.8053)">
        <path d="M0,0.75L0,1.183L4.39,1.183L4.39,0.75C4.493,-0.354 3.682,-1.333 2.578,-1.436C2.456,-1.447 2.332,-1.448 2.209,-1.436C1.093,-1.539 0.104,-0.717 0.002,0.4C-0.009,0.517 -0.009,0.634 0,0.75M0,3.409L0,3.888C0,5.209 0.687,6.138 2.308,6.138C3.929,6.138 4.309,5.561 4.719,4.8C4.921,4.459 5.013,4.413 5.377,4.569L7.171,5.48C7.54,5.665 7.563,5.844 7.401,6.184C6.628,7.915 4.696,8.936 2.284,8.936C-1.356,8.936 -3.265,6.778 -3.265,3.819L-3.265,0.935C-3.265,-1.95 -1.471,-4.188 2.261,-4.188C5.809,-4.188 7.54,-1.932 7.54,0.865L7.54,2.867C7.54,3.208 7.424,3.444 6.963,3.444L0,3.409ZM-4.465,-3.686L-4.465,-1.252C-4.465,-0.958 -4.58,-0.842 -4.875,-0.842L-5.244,-0.842C-7.061,-0.842 -8.128,-0.023 -8.492,1.344L-8.492,8.348C-8.479,8.522 -8.61,8.674 -8.785,8.687C-8.787,8.688 -8.789,8.688 -8.792,8.688L-11.676,8.688C-11.851,8.679 -11.986,8.53 -11.977,8.355C-11.976,8.352 -11.976,8.35 -11.976,8.348L-11.976,-3.594C-11.984,-3.763 -11.853,-3.905 -11.684,-3.913C-11.668,-3.914 -11.652,-3.913 -11.636,-3.911L-9.04,-3.911C-8.769,-3.911 -8.699,-3.732 -8.699,-3.548L-8.699,-1.863C-8.019,-3.269 -6.574,-4.141 -5.013,-4.09C-4.557,-4.09 -4.436,-4.021 -4.436,-3.704M-17.555,4.402L-17.555,3.254C-18.223,3.229 -18.892,3.252 -19.556,3.323C-20.831,3.479 -21.512,3.865 -21.512,4.846C-21.512,5.729 -20.935,6.207 -19.943,6.207C-18.837,6.228 -17.856,5.501 -17.555,4.436M-14.209,0.139L-14.209,8.348C-14.199,8.526 -14.335,8.678 -14.513,8.688C-14.525,8.689 -14.537,8.689 -14.549,8.688L-17.053,8.688C-17.233,8.707 -17.395,8.576 -17.414,8.396C-17.416,8.38 -17.417,8.364 -17.416,8.348L-17.416,7.003C-18.14,8.222 -19.461,8.959 -20.877,8.936C-23.243,8.936 -24.766,7.413 -24.766,5.071C-24.766,2.729 -23.335,1.431 -19.833,1.183C-19.075,1.125 -18.313,1.125 -17.555,1.183L-17.555,0.248C-17.555,-0.981 -18.195,-1.483 -19.285,-1.483C-20.07,-1.588 -20.811,-1.094 -21.016,-0.329C-21.125,-0.058 -21.218,-0.011 -21.472,-0.081L-23.969,-0.715C-24.223,-0.785 -24.246,-0.923 -24.2,-1.102C-23.86,-2.902 -22.152,-4.223 -19.147,-4.223C-15.985,-4.223 -14.214,-2.717 -14.214,0.104M-26.317,-3.911C-26.248,-3.617 -26.317,-3.392 -26.612,-3.334L-29.023,-2.631C-29.213,-2.54 -29.44,-2.62 -29.531,-2.809C-29.548,-2.846 -29.56,-2.885 -29.565,-2.925C-29.911,-4.079 -30.5,-4.973 -32.184,-4.973C-34.255,-4.973 -34.913,-3.605 -34.913,-1.765L-34.913,2.469C-34.913,4.309 -34.163,5.677 -32.184,5.677C-30.408,5.677 -29.727,4.673 -29.456,3.421C-29.435,3.215 -29.251,3.065 -29.045,3.085C-28.997,3.09 -28.95,3.104 -28.908,3.127L-26.49,3.911C-26.255,3.98 -26.119,4.226 -26.188,4.462C-26.19,4.471 -26.193,4.479 -26.196,4.488C-26.773,6.946 -28.538,8.942 -32.225,8.942C-36.361,8.942 -38.455,6.259 -38.455,2.596L-38.455,-1.863C-38.455,-5.55 -36.321,-8.209 -32.225,-8.209C-28.631,-8.209 -26.946,-6.3 -26.312,-3.888M-50.864,-4.188C-49.422,-4.214 -48.143,-3.267 -47.749,-1.881C-46.814,-3.248 -45.678,-4.188 -44.085,-4.188C-41.882,-4.188 -40.624,-2.457 -40.624,0.179L-40.624,8.348C-40.639,8.551 -40.815,8.704 -41.019,8.689C-41.024,8.689 -41.029,8.688 -41.034,8.688L-43.647,8.688C-43.85,8.711 -44.032,8.565 -44.055,8.362C-44.056,8.357 -44.056,8.353 -44.057,8.348L-44.057,0.773C-44.057,-0.381 -44.558,-1.05 -45.447,-1.05C-46.335,-1.05 -47.062,-0.271 -47.403,0.912L-47.403,8.348C-47.39,8.522 -47.521,8.674 -47.696,8.687C-47.704,8.688 -47.712,8.688 -47.72,8.688L-50.547,8.688C-50.748,8.688 -50.841,8.549 -50.841,8.348L-50.841,0.773C-50.841,-0.381 -51.343,-1.05 -52.231,-1.05C-53.119,-1.05 -53.869,-0.231 -54.187,0.935L-54.187,8.348C-54.17,8.519 -54.295,8.671 -54.466,8.688C-54.487,8.69 -54.507,8.69 -54.527,8.688L-57.302,8.688C-57.473,8.705 -57.625,8.579 -57.642,8.408C-57.644,8.388 -57.644,8.368 -57.642,8.348L-57.642,-3.594C-57.643,-3.769 -57.501,-3.912 -57.326,-3.912C-57.318,-3.912 -57.31,-3.912 -57.302,-3.911L-54.642,-3.911C-54.471,-3.927 -54.319,-3.801 -54.303,-3.63C-54.302,-3.618 -54.302,-3.606 -54.302,-3.594L-54.302,-2.163C-53.546,-3.207 -52.456,-4.188 -50.841,-4.188M-63.255,4.402L-63.255,3.254C-63.923,3.23 -64.592,3.253 -65.257,3.323C-66.526,3.479 -67.213,3.865 -67.213,4.846C-67.213,5.729 -66.636,6.207 -65.644,6.207C-64.537,6.23 -63.555,5.502 -63.255,4.436M-59.898,0.139L-59.898,8.348C-59.888,8.526 -60.024,8.678 -60.203,8.688C-60.214,8.689 -60.226,8.689 -60.238,8.688L-62.742,8.688C-62.922,8.707 -63.084,8.576 -63.104,8.396C-63.105,8.38 -63.106,8.364 -63.105,8.348L-63.105,7.003C-63.829,8.222 -65.15,8.959 -66.567,8.936C-68.932,8.936 -70.461,7.413 -70.461,5.071C-70.461,2.729 -69.024,1.431 -65.522,1.183C-64.766,1.125 -64.006,1.125 -63.25,1.183L-63.25,0.248C-63.25,-0.981 -63.884,-1.483 -64.98,-1.483C-65.766,-1.593 -66.511,-1.097 -66.711,-0.329C-66.826,-0.058 -66.913,-0.011 -67.167,-0.081L-69.67,-0.715C-69.918,-0.785 -69.941,-0.923 -69.895,-1.102C-69.555,-2.902 -67.847,-4.223 -64.847,-4.223C-61.686,-4.223 -59.909,-2.717 -59.909,0.104M-72.358,-4.05C-72.267,-3.832 -72.368,-3.582 -72.586,-3.49C-72.602,-3.483 -72.618,-3.478 -72.635,-3.473L-75.087,-2.746C-75.387,-2.659 -75.543,-2.746 -75.664,-3.046C-75.955,-4.276 -77.111,-5.102 -78.37,-4.978C-80.677,-4.978 -81.467,-3.611 -81.467,-1.771L-81.467,2.463C-81.467,4.304 -80.689,5.671 -78.37,5.671C-76.46,5.671 -75.485,4.782 -75.485,2.85L-75.485,2.273L-77.977,2.273C-78.152,2.288 -78.305,2.158 -78.32,1.983C-78.322,1.959 -78.321,1.934 -78.318,1.91L-78.318,-0.386C-78.34,-0.563 -78.215,-0.725 -78.038,-0.748C-78.018,-0.75 -77.998,-0.751 -77.977,-0.75L-72.428,-0.75C-72.254,-0.776 -72.093,-0.657 -72.067,-0.483C-72.063,-0.459 -72.062,-0.434 -72.064,-0.41L-72.064,3.092C-72.064,6.438 -74.522,8.959 -78.341,8.959C-82.869,8.959 -84.986,6.277 -84.986,2.613L-84.986,-1.863C-84.986,-5.55 -82.869,-8.209 -78.341,-8.209C-74.678,-8.209 -73.022,-6.121 -72.358,-4.027" style="fill:white;fill-rule:nonzero;"/>
    </g>
    <g transform="matrix(1,0,0,1,261.896,30.7644)">
        <path d="M0,8.806C0,14.206 -3.963,18.284 -10.136,18.284C-17.445,18.284 -20.86,13.946 -20.86,8.027L-20.86,0.799C-20.86,-5.155 -17.445,-9.487 -10.147,-9.487C-4.234,-9.487 -1.552,-6.106 -0.485,-2.726C-0.326,-2.381 -0.477,-1.974 -0.822,-1.815C-0.853,-1.801 -0.885,-1.789 -0.917,-1.78L-4.886,-0.626C-5.359,-0.482 -5.619,-0.626 -5.763,-1.105C-6.392,-3.124 -7.713,-4.226 -10.136,-4.226C-13.886,-4.226 -15.132,-2.022 -15.132,0.966L-15.132,7.814C-15.132,10.79 -13.886,13.006 -10.136,13.006C-7.049,13.006 -5.434,11.569 -5.434,8.448L-5.434,7.554L-9.57,7.554C-9.852,7.592 -10.11,7.394 -10.147,7.113C-10.153,7.068 -10.153,7.022 -10.147,6.977L-10.147,3.187C-10.171,2.892 -9.95,2.633 -9.655,2.61C-9.627,2.608 -9.598,2.608 -9.57,2.61L-0.588,2.61C-0.307,2.574 -0.05,2.773 -0.014,3.055C-0.01,3.089 -0.009,3.124 -0.012,3.158L0,8.806ZM-9.732,-14.096L-24.996,-14.096C-25.251,-14.099 -25.46,-13.895 -25.464,-13.641L-25.464,8.564C-25.46,16.485 -19.038,22.905 -11.117,22.905L-9.732,22.905C-1.812,22.905 4.609,16.484 4.609,8.564L4.609,0.245C4.609,-7.675 -1.812,-14.096 -9.732,-14.096" style="fill:white;fill-rule:nonzero;"/>
    </g>
    <g transform="matrix(1,0,0,1,363.739,50.1318)">
        <path d="M0,0.584L0,0.722C-0.053,1.037 0.158,1.334 0.472,1.388C0.539,1.399 0.608,1.398 0.675,1.386C0.975,1.432 1.268,1.271 1.39,0.994C1.448,0.89 1.477,0.878 1.581,0.924L2.111,1.195C2.221,1.247 2.227,1.299 2.181,1.403C1.882,1.949 1.289,2.266 0.669,2.211C-0.128,2.31 -0.854,1.745 -0.954,0.948C-0.964,0.868 -0.967,0.786 -0.963,0.705L-0.963,-0.154C-1.002,-0.953 -0.385,-1.632 0.414,-1.67C0.497,-1.674 0.581,-1.67 0.663,-1.66C1.443,-1.738 2.138,-1.168 2.216,-0.388C2.223,-0.316 2.225,-0.244 2.221,-0.172L2.221,0.405C2.221,0.503 2.186,0.572 2.042,0.572L0,0.584ZM0,-0.201L0,-0.074L1.292,-0.074L1.292,-0.201C1.333,-0.517 1.109,-0.806 0.793,-0.846C0.746,-0.852 0.699,-0.852 0.652,-0.847C0.336,-0.891 0.045,-0.671 0.001,-0.355C-0.006,-0.304 -0.007,-0.252 0,-0.201M-1.465,-1.533L-1.465,-0.812C-1.465,-0.726 -1.494,-0.697 -1.586,-0.697L-1.69,-0.697C-2.126,-0.752 -2.536,-0.475 -2.648,-0.051L-2.648,2.015C-2.645,2.066 -2.683,2.109 -2.734,2.113L-3.582,2.113C-3.63,2.113 -3.669,2.075 -3.67,2.027C-3.67,2.023 -3.669,2.019 -3.669,2.015L-3.669,-1.504C-3.673,-1.552 -3.637,-1.594 -3.589,-1.597C-3.583,-1.598 -3.577,-1.597 -3.571,-1.597L-2.804,-1.597C-2.723,-1.597 -2.706,-1.545 -2.706,-1.493L-2.706,-0.956C-2.507,-1.368 -2.084,-1.624 -1.627,-1.608C-1.488,-1.608 -1.465,-1.608 -1.465,-1.493M-6.6,0.584L-6.6,0.722C-6.653,1.037 -6.441,1.334 -6.127,1.388C-6.06,1.399 -5.991,1.398 -5.925,1.386C-5.626,1.432 -5.335,1.27 -5.215,0.994C-5.152,0.89 -5.123,0.878 -5.019,0.924L-4.488,1.195C-4.379,1.247 -4.373,1.299 -4.419,1.403C-4.717,1.949 -5.311,2.266 -5.93,2.211C-6.726,2.317 -7.457,1.757 -7.563,0.962C-7.575,0.877 -7.578,0.791 -7.574,0.705L-7.574,-0.154C-7.613,-0.953 -6.996,-1.632 -6.197,-1.67C-6.114,-1.674 -6.03,-1.67 -5.948,-1.66C-5.168,-1.738 -4.473,-1.168 -4.395,-0.388C-4.388,-0.316 -4.386,-0.244 -4.39,-0.172L-4.39,0.405C-4.39,0.503 -4.425,0.572 -4.569,0.572L-6.6,0.584ZM-6.6,-0.201L-6.6,-0.074L-5.307,-0.074L-5.307,-0.201C-5.267,-0.517 -5.49,-0.806 -5.806,-0.846C-5.853,-0.852 -5.901,-0.852 -5.948,-0.847C-6.263,-0.891 -6.555,-0.671 -6.599,-0.355C-6.606,-0.304 -6.606,-0.252 -6.6,-0.201M-8.382,-2.687L-8.382,2.02C-8.382,2.078 -8.382,2.119 -8.486,2.119L-9.305,2.119C-9.359,2.122 -9.406,2.08 -9.409,2.026L-9.409,0.163L-11.099,0.163L-11.099,2.032C-11.096,2.083 -11.134,2.127 -11.185,2.131C-11.191,2.131 -11.197,2.131 -11.203,2.13L-12.045,2.13C-12.099,2.133 -12.146,2.092 -12.149,2.038L-12.149,-2.687C-12.15,-2.741 -12.106,-2.785 -12.052,-2.786C-12.048,-2.786 -12.044,-2.785 -12.04,-2.785L-11.203,-2.785C-11.152,-2.792 -11.106,-2.756 -11.1,-2.705C-11.099,-2.699 -11.099,-2.693 -11.099,-2.687L-11.099,-0.818L-9.409,-0.818L-9.409,-2.687C-9.409,-2.741 -9.365,-2.785 -9.311,-2.785L-8.469,-2.785C-8.394,-2.785 -8.365,-2.745 -8.365,-2.687M-14.595,-0.754C-14.595,-0.697 -14.595,-0.645 -14.676,-0.622L-15.293,-0.402C-15.362,-0.402 -15.397,-0.402 -15.426,-0.477C-15.522,-0.739 -15.783,-0.903 -16.06,-0.876C-16.378,-0.876 -16.562,-0.754 -16.562,-0.57C-16.562,-0.385 -16.43,-0.316 -15.72,-0.126C-14.895,0.094 -14.566,0.451 -14.566,1.028C-14.566,1.744 -15.143,2.182 -16.066,2.182C-16.989,2.182 -17.474,1.853 -17.664,1.288C-17.664,1.207 -17.664,1.167 -17.566,1.126L-17.024,0.861C-16.943,0.821 -16.897,0.861 -16.857,0.942C-16.734,1.242 -16.43,1.427 -16.107,1.397C-15.732,1.397 -15.53,1.276 -15.53,1.074C-15.53,0.872 -15.737,0.774 -16.401,0.59C-17.214,0.376 -17.555,0.013 -17.555,-0.564C-17.555,-1.268 -16.978,-1.718 -16.112,-1.718C-15.467,-1.783 -14.855,-1.414 -14.612,-0.812M-18.979,-2.364L-18.979,-1.533L-18.287,-1.533C-18.233,-1.537 -18.186,-1.496 -18.183,-1.442C-18.182,-1.436 -18.183,-1.43 -18.183,-1.424L-18.183,-0.818C-18.177,-0.767 -18.212,-0.721 -18.263,-0.714C-18.271,-0.713 -18.279,-0.713 -18.287,-0.714L-18.979,-0.714L-18.979,0.93C-18.979,1.144 -18.864,1.265 -18.593,1.265L-18.287,1.265C-18.237,1.258 -18.19,1.294 -18.184,1.344C-18.183,1.351 -18.183,1.357 -18.183,1.363L-18.183,2.049C-18.183,2.119 -18.224,2.147 -18.287,2.147L-18.755,2.147C-19.585,2.147 -19.972,1.709 -19.972,1.063L-19.972,-0.731L-20.404,-0.731C-20.455,-0.724 -20.501,-0.76 -20.508,-0.81C-20.509,-0.819 -20.509,-0.827 -20.508,-0.835L-20.508,-1.441C-20.515,-1.495 -20.476,-1.543 -20.423,-1.55C-20.417,-1.551 -20.41,-1.551 -20.404,-1.55L-19.96,-1.55L-19.96,-2.364C-19.967,-2.414 -19.932,-2.461 -19.881,-2.468C-19.873,-2.469 -19.865,-2.469 -19.856,-2.468L-19.072,-2.468C-19.021,-2.468 -18.979,-2.427 -18.979,-2.376L-18.979,-2.364M-20.952,-1.533L-20.952,-0.812C-20.952,-0.726 -20.987,-0.697 -21.074,-0.697L-21.183,-0.697C-21.619,-0.752 -22.029,-0.475 -22.141,-0.051L-22.141,2.015C-22.134,2.062 -22.168,2.106 -22.215,2.112C-22.219,2.113 -22.223,2.113 -22.227,2.113L-23.07,2.113C-23.117,2.113 -23.156,2.075 -23.157,2.027C-23.157,2.023 -23.157,2.019 -23.156,2.015L-23.156,-1.504C-23.16,-1.552 -23.124,-1.594 -23.076,-1.597C-23.07,-1.598 -23.064,-1.597 -23.058,-1.597L-22.291,-1.597C-22.24,-1.6 -22.196,-1.562 -22.192,-1.511C-22.192,-1.505 -22.192,-1.499 -22.193,-1.493L-22.193,-0.956C-21.994,-1.368 -21.571,-1.624 -21.114,-1.608C-20.981,-1.608 -20.952,-1.608 -20.952,-1.493M-23.958,-0.408L-23.958,2.015C-23.958,2.069 -24.002,2.113 -24.056,2.113L-24.8,2.113C-24.854,2.116 -24.901,2.075 -24.904,2.021L-24.904,1.617C-25.114,1.98 -25.505,2.201 -25.925,2.193C-26.516,2.24 -27.032,1.799 -27.079,1.208C-27.083,1.152 -27.083,1.096 -27.079,1.04C-27.079,0.365 -26.652,-0.033 -25.619,-0.114C-25.397,-0.134 -25.173,-0.134 -24.95,-0.114L-24.95,-0.379C-24.915,-0.622 -25.084,-0.847 -25.327,-0.882C-25.37,-0.888 -25.415,-0.888 -25.458,-0.881C-25.69,-0.913 -25.91,-0.767 -25.971,-0.541C-26.006,-0.46 -26.029,-0.443 -26.104,-0.466L-26.842,-0.651C-26.917,-0.651 -26.923,-0.714 -26.906,-0.766C-26.808,-1.297 -26.329,-1.683 -25.423,-1.683C-24.518,-1.683 -23.964,-1.245 -23.964,-0.414M-24.956,0.878L-24.956,0.532C-25.148,0.521 -25.341,0.521 -25.533,0.532C-25.908,0.578 -26.11,0.694 -26.11,0.982C-26.11,1.27 -25.937,1.386 -25.648,1.386C-25.322,1.39 -25.033,1.175 -24.944,0.861M-28.429,-2.364L-28.429,-1.533L-27.737,-1.533C-27.683,-1.54 -27.634,-1.502 -27.627,-1.448C-27.626,-1.44 -27.626,-1.432 -27.627,-1.424L-27.627,-0.818C-27.623,-0.764 -27.664,-0.717 -27.718,-0.714C-27.724,-0.713 -27.731,-0.713 -27.737,-0.714L-28.429,-0.714L-28.429,0.93C-28.429,1.144 -28.313,1.265 -28.037,1.265L-27.737,1.265C-27.667,1.265 -27.627,1.299 -27.627,1.363L-27.627,2.049C-27.627,2.119 -27.667,2.147 -27.737,2.147L-28.198,2.147C-29.029,2.147 -29.421,1.709 -29.421,1.063L-29.421,-0.731L-29.848,-0.731C-29.902,-0.725 -29.951,-0.763 -29.957,-0.817C-29.958,-0.823 -29.958,-0.829 -29.958,-0.835L-29.958,-1.441C-29.964,-1.495 -29.926,-1.544 -29.873,-1.55C-29.864,-1.552 -29.856,-1.552 -29.848,-1.55L-29.404,-1.55L-29.404,-2.364C-29.41,-2.414 -29.375,-2.461 -29.324,-2.467C-29.318,-2.468 -29.312,-2.468 -29.306,-2.468L-28.521,-2.468C-28.458,-2.468 -28.429,-2.427 -28.429,-2.364M-30.506,-1.787C-30.506,-1.718 -30.506,-1.666 -30.604,-1.637L-31.25,-1.4C-31.309,-1.369 -31.382,-1.392 -31.413,-1.451C-31.417,-1.459 -31.421,-1.467 -31.423,-1.475C-31.534,-1.777 -31.836,-1.964 -32.156,-1.931C-32.554,-1.931 -32.813,-1.741 -32.813,-1.452C-32.813,-1.164 -32.611,-1.043 -31.717,-0.731C-30.823,-0.42 -30.459,0.007 -30.459,0.717C-30.459,1.565 -31.186,2.211 -32.236,2.211C-33.038,2.308 -33.79,1.802 -34.002,1.022C-34.023,0.963 -33.993,0.896 -33.933,0.874C-33.931,0.874 -33.929,0.873 -33.927,0.872L-33.229,0.642C-33.136,0.613 -33.09,0.642 -33.067,0.734C-32.98,1.109 -32.715,1.311 -32.242,1.311C-31.769,1.311 -31.521,1.109 -31.521,0.809C-31.521,0.509 -31.7,0.405 -32.427,0.151C-33.471,-0.224 -33.869,-0.639 -33.869,-1.412C-33.806,-2.26 -33.068,-2.897 -32.219,-2.835C-32.206,-2.834 -32.192,-2.833 -32.179,-2.831C-31.441,-2.905 -30.75,-2.463 -30.506,-1.764M-37.117,-2.416L-37.117,-1.533L-36.332,-1.533C-36.274,-1.533 -36.251,-1.504 -36.251,-1.441L-36.251,-1.112C-36.251,-1.049 -36.251,-1.026 -36.332,-1.026L-37.117,-1.026L-37.117,1.103C-37.117,1.432 -36.938,1.582 -36.603,1.582L-36.338,1.582C-36.28,1.582 -36.251,1.582 -36.251,1.663L-36.251,2.038C-36.251,2.101 -36.251,2.124 -36.338,2.124L-36.69,2.124C-37.179,2.195 -37.632,1.856 -37.703,1.368C-37.712,1.309 -37.714,1.249 -37.711,1.19L-37.711,-1.02L-38.213,-1.02C-38.259,-1.02 -38.288,-1.02 -38.288,-1.106L-38.288,-1.435C-38.288,-1.499 -38.259,-1.527 -38.213,-1.527L-37.705,-1.527L-37.705,-2.416C-37.705,-2.462 -37.705,-2.491 -37.619,-2.491L-37.203,-2.491C-37.134,-2.491 -37.117,-2.491 -37.117,-2.416M-38.876,-1.533L-38.876,-1.124C-38.876,-1.06 -38.876,-1.037 -38.969,-1.037L-39.044,-1.037C-39.517,-1.053 -39.945,-0.755 -40.093,-0.304L-40.093,2.038C-40.093,2.09 -40.128,2.107 -40.168,2.107L-40.624,2.107C-40.659,2.11 -40.69,2.085 -40.693,2.05C-40.694,2.046 -40.694,2.042 -40.693,2.038L-40.693,-1.475C-40.693,-1.533 -40.693,-1.55 -40.613,-1.55L-40.197,-1.55C-40.14,-1.55 -40.111,-1.522 -40.111,-1.47L-40.111,-0.893C-39.895,-1.329 -39.443,-1.598 -38.957,-1.579C-38.87,-1.579 -38.847,-1.579 -38.847,-1.493M-41.639,-0.189L-41.639,0.774C-41.639,1.596 -42.306,2.263 -43.128,2.263C-43.95,2.263 -44.616,1.596 -44.616,0.774L-44.616,-0.172C-44.616,-0.994 -43.95,-1.66 -43.128,-1.66C-42.306,-1.66 -41.639,-0.994 -41.639,-0.172M-44.01,-0.16L-44.01,0.774C-44.011,1.262 -43.616,1.657 -43.129,1.658C-42.641,1.659 -42.246,1.264 -42.245,0.777L-42.245,-0.16C-42.245,-0.648 -42.639,-1.043 -43.127,-1.044C-43.614,-1.045 -44.01,-0.65 -44.01,-0.162L-44.01,-0.16M-48.36,3.474C-48.398,3.478 -48.432,3.449 -48.435,3.411L-48.435,-1.475C-48.435,-1.527 -48.406,-1.55 -48.354,-1.55L-47.927,-1.55C-47.89,-1.557 -47.854,-1.532 -47.847,-1.494C-47.846,-1.488 -47.846,-1.482 -47.847,-1.475L-47.847,-1.06C-47.615,-1.427 -47.208,-1.646 -46.774,-1.637C-46.08,-1.663 -45.496,-1.122 -45.47,-0.428C-45.467,-0.367 -45.469,-0.307 -45.476,-0.247L-45.476,0.786C-45.399,1.479 -45.899,2.104 -46.593,2.18C-46.645,2.186 -46.698,2.189 -46.751,2.188C-47.189,2.207 -47.602,1.986 -47.829,1.611L-47.829,3.376C-47.826,3.414 -47.854,3.448 -47.892,3.451L-47.904,3.451L-48.36,3.474ZM-46.087,0.722L-46.087,-0.154C-46.019,-0.592 -46.319,-1.002 -46.757,-1.07C-46.816,-1.079 -46.876,-1.082 -46.935,-1.077C-47.416,-1.091 -47.817,-0.713 -47.831,-0.232C-47.832,-0.204 -47.831,-0.176 -47.829,-0.149L-47.829,0.717C-47.865,1.2 -47.502,1.62 -47.019,1.655C-46.991,1.657 -46.963,1.658 -46.935,1.657C-46.405,1.657 -46.087,1.334 -46.087,0.722M-52.266,3.474C-52.304,3.478 -52.337,3.449 -52.341,3.411L-52.341,-1.475C-52.341,-1.527 -52.312,-1.55 -52.26,-1.55L-51.833,-1.55C-51.795,-1.557 -51.759,-1.532 -51.753,-1.494C-51.752,-1.488 -51.752,-1.482 -51.752,-1.475L-51.752,-1.06C-51.52,-1.427 -51.113,-1.646 -50.679,-1.637C-49.985,-1.66 -49.404,-1.116 -49.381,-0.422C-49.379,-0.363 -49.381,-0.305 -49.387,-0.247L-49.387,0.786C-49.31,1.479 -49.811,2.104 -50.504,2.18C-50.555,2.186 -50.605,2.188 -50.656,2.188C-51.095,2.21 -51.51,1.988 -51.735,1.611L-51.735,3.376C-51.732,3.414 -51.76,3.448 -51.798,3.451L-51.81,3.451L-52.266,3.474ZM-49.998,0.722L-49.998,-0.154C-49.931,-0.592 -50.23,-1.002 -50.668,-1.07C-50.727,-1.079 -50.787,-1.082 -50.846,-1.077C-51.327,-1.091 -51.728,-0.713 -51.742,-0.232C-51.743,-0.204 -51.743,-0.176 -51.741,-0.149L-51.741,0.717C-51.776,1.2 -51.413,1.62 -50.93,1.655C-50.9,1.657 -50.87,1.658 -50.841,1.657C-50.31,1.657 -49.993,1.334 -49.993,0.722M-56.2,0.994L-56.2,-1.47C-56.2,-1.522 -56.171,-1.55 -56.113,-1.55L-55.675,-1.55C-55.617,-1.55 -55.589,-1.522 -55.589,-1.47L-55.589,0.89C-55.589,1.369 -55.375,1.645 -54.919,1.645C-54.492,1.621 -54.123,1.337 -53.991,0.93L-53.991,-1.47C-53.991,-1.522 -53.991,-1.55 -53.904,-1.55L-53.471,-1.55C-53.402,-1.55 -53.385,-1.522 -53.385,-1.47L-53.385,2.049C-53.385,2.101 -53.385,2.13 -53.466,2.13L-53.892,2.13C-53.93,2.137 -53.966,2.112 -53.973,2.075C-53.975,2.066 -53.975,2.058 -53.973,2.049L-53.973,1.57C-54.227,1.962 -54.66,2.201 -55.127,2.205C-55.716,2.217 -56.204,1.749 -56.215,1.159C-56.216,1.104 -56.213,1.049 -56.206,0.994M-57.129,-1.827C-57.11,-1.791 -57.124,-1.745 -57.161,-1.726C-57.17,-1.721 -57.181,-1.718 -57.192,-1.718L-57.567,-1.574C-57.615,-1.555 -57.668,-1.579 -57.687,-1.626C-57.687,-1.628 -57.688,-1.63 -57.688,-1.631C-57.82,-2.04 -58.212,-2.306 -58.64,-2.277C-59.217,-2.277 -59.546,-2.006 -59.546,-1.562C-59.546,-1.118 -59.304,-0.985 -58.392,-0.616C-57.481,-0.247 -57.088,0.146 -57.088,0.832C-57.108,1.616 -57.76,2.235 -58.543,2.215C-58.587,2.213 -58.631,2.21 -58.675,2.205C-59.415,2.281 -60.101,1.806 -60.29,1.086C-60.29,1.017 -60.29,0.988 -60.232,0.965L-59.84,0.838C-59.765,0.838 -59.736,0.838 -59.719,0.907C-59.603,1.377 -59.156,1.689 -58.675,1.634C-58.098,1.634 -57.723,1.345 -57.723,0.878C-57.723,0.411 -57.942,0.244 -58.779,-0.079C-59.782,-0.477 -60.163,-0.87 -60.163,-1.55C-60.134,-2.302 -59.501,-2.887 -58.75,-2.858C-58.711,-2.856 -58.673,-2.853 -58.634,-2.848C-57.955,-2.896 -57.33,-2.475 -57.117,-1.827M-62.638,2.453C-62.638,3.03 -63.088,3.555 -64.282,3.555C-65.384,3.555 -65.817,3.14 -65.817,2.563C-65.812,2.202 -65.581,1.884 -65.24,1.767C-65.393,1.659 -65.489,1.487 -65.499,1.299C-65.491,1.066 -65.343,0.862 -65.124,0.78C-65.498,0.565 -65.72,0.16 -65.701,-0.27C-65.736,-0.938 -65.223,-1.508 -64.554,-1.543C-64.479,-1.546 -64.403,-1.543 -64.328,-1.533L-62.719,-1.533C-62.673,-1.533 -62.65,-1.504 -62.65,-1.452L-62.65,-1.124C-62.65,-1.06 -62.684,-1.037 -62.73,-1.037L-63.371,-1.037C-63.119,-0.83 -62.98,-0.515 -62.996,-0.189C-62.996,0.492 -63.451,0.965 -64.328,0.965L-64.628,0.965C-64.882,0.965 -64.992,1.08 -64.992,1.219C-64.992,1.357 -64.876,1.472 -64.628,1.472L-63.838,1.472C-62.973,1.472 -62.632,1.905 -62.632,2.442M-63.215,2.493C-63.215,2.228 -63.365,1.98 -63.907,1.98L-64.582,1.98C-65.09,1.98 -65.246,2.24 -65.246,2.505C-65.246,2.874 -64.957,3.117 -64.247,3.117C-63.538,3.117 -63.215,2.863 -63.215,2.493M-65.147,-0.293C-65.182,0.113 -64.881,0.471 -64.475,0.506C-64.424,0.51 -64.373,0.509 -64.323,0.503C-63.937,0.554 -63.584,0.282 -63.533,-0.103C-63.526,-0.161 -63.526,-0.218 -63.532,-0.276C-63.532,-0.722 -63.894,-1.083 -64.34,-1.083C-64.786,-1.083 -65.147,-0.722 -65.147,-0.276M-68.811,-0.351L-68.811,2.055C-68.811,2.107 -68.811,2.13 -68.886,2.13L-69.301,2.13C-69.37,2.13 -69.388,2.13 -69.388,2.055L-69.388,-1.475C-69.388,-1.522 -69.388,-1.55 -69.307,-1.55L-68.88,-1.55C-68.816,-1.55 -68.799,-1.522 -68.799,-1.475L-68.799,-0.991C-68.543,-1.379 -68.11,-1.614 -67.645,-1.62C-67.059,-1.635 -66.572,-1.173 -66.556,-0.587C-66.555,-0.527 -66.558,-0.467 -66.567,-0.408L-66.567,2.055C-66.567,2.107 -66.567,2.13 -66.653,2.13L-67.092,2.13C-67.149,2.13 -67.178,2.13 -67.178,2.055L-67.178,-0.31C-67.178,-0.783 -67.392,-1.06 -67.853,-1.06C-68.278,-1.034 -68.645,-0.753 -68.782,-0.351M-70.455,-2.86L-70.455,-2.214C-70.455,-2.15 -70.455,-2.116 -70.553,-2.116L-70.957,-2.116C-71.004,-2.109 -71.048,-2.142 -71.055,-2.189C-71.056,-2.197 -71.056,-2.206 -71.055,-2.214L-71.055,-2.86C-71.062,-2.907 -71.029,-2.951 -70.982,-2.958C-70.973,-2.959 -70.965,-2.959 -70.957,-2.958L-70.553,-2.958C-70.478,-2.958 -70.455,-2.923 -70.455,-2.86M-70.455,-1.47L-70.455,2.055C-70.455,2.107 -70.455,2.13 -70.53,2.13L-70.968,2.13C-71.037,2.13 -71.055,2.13 -71.055,2.055L-71.055,-1.47C-71.055,-1.522 -71.055,-1.545 -70.968,-1.545L-70.53,-1.545C-70.472,-1.545 -70.455,-1.545 -70.455,-1.47M-72.07,-2.883L-72.07,2.049C-72.07,2.107 -72.07,2.13 -72.151,2.13L-72.589,2.13C-72.658,2.13 -72.676,2.13 -72.676,2.049L-72.676,-2.883C-72.676,-2.935 -72.676,-2.964 -72.589,-2.964L-72.151,-2.964C-72.113,-2.971 -72.077,-2.946 -72.07,-2.909C-72.068,-2.9 -72.068,-2.891 -72.07,-2.883M-75.97,-2.883L-75.97,-1.043C-75.74,-1.418 -75.325,-1.639 -74.885,-1.62C-74.191,-1.631 -73.619,-1.077 -73.608,-0.382C-73.607,-0.327 -73.61,-0.272 -73.616,-0.218L-73.616,0.803C-73.539,1.494 -74.037,2.115 -74.727,2.192C-74.787,2.199 -74.848,2.201 -74.908,2.199C-75.344,2.214 -75.753,1.994 -75.981,1.622L-75.981,2.049C-75.981,2.101 -76.022,2.119 -76.062,2.119L-76.489,2.119C-76.541,2.119 -76.57,2.119 -76.57,2.049L-76.57,-2.883C-76.573,-2.921 -76.545,-2.955 -76.507,-2.958L-76.039,-2.958C-75.987,-2.958 -75.97,-2.958 -75.97,-2.883M-75.987,-0.126L-75.987,0.728C-76.02,1.208 -75.657,1.624 -75.177,1.656C-75.141,1.659 -75.106,1.659 -75.07,1.657C-74.539,1.657 -74.222,1.345 -74.222,0.728L-74.222,-0.131C-74.222,-0.743 -74.539,-1.072 -75.07,-1.072C-75.557,-1.082 -75.961,-0.696 -75.972,-0.209C-75.972,-0.181 -75.972,-0.153 -75.97,-0.126M-80.568,-1.62C-80.156,-1.628 -79.791,-1.354 -79.685,-0.956C-79.468,-1.35 -79.061,-1.601 -78.612,-1.62C-78.035,-1.62 -77.637,-1.181 -77.637,-0.495L-77.637,2.049C-77.637,2.107 -77.672,2.13 -77.729,2.13L-78.127,2.13C-78.191,2.13 -78.22,2.13 -78.22,2.049L-78.22,-0.379C-78.22,-0.829 -78.422,-1.072 -78.797,-1.072C-79.181,-1.028 -79.499,-0.753 -79.598,-0.379L-79.598,2.061C-79.598,2.119 -79.598,2.142 -79.679,2.142L-80.123,2.142C-80.187,2.142 -80.204,2.142 -80.204,2.061L-80.204,-0.379C-80.204,-0.829 -80.4,-1.072 -80.781,-1.072C-81.161,-1.018 -81.474,-0.747 -81.583,-0.379L-81.583,2.032C-81.583,2.09 -81.583,2.113 -81.664,2.113L-82.102,2.113C-82.166,2.113 -82.183,2.113 -82.183,2.032L-82.183,-1.475C-82.183,-1.522 -82.183,-1.55 -82.102,-1.55L-81.675,-1.55C-81.612,-1.55 -81.594,-1.522 -81.594,-1.475L-81.594,-0.991C-81.383,-1.363 -80.995,-1.6 -80.568,-1.62M-83.221,-0.46L-83.221,2.061C-83.221,2.113 -83.221,2.136 -83.308,2.136L-83.712,2.136C-83.769,2.136 -83.798,2.136 -83.798,2.061L-83.798,1.582C-84.024,1.963 -84.434,2.198 -84.877,2.199C-85.454,2.257 -85.968,1.836 -86.026,1.259C-86.031,1.213 -86.032,1.167 -86.031,1.12C-86.031,0.446 -85.575,0.076 -84.687,0.007C-84.396,-0.013 -84.105,-0.013 -83.815,0.007L-83.815,-0.42C-83.815,-0.904 -84.098,-1.106 -84.554,-1.106C-84.89,-1.162 -85.213,-0.952 -85.298,-0.622C-85.298,-0.558 -85.344,-0.552 -85.413,-0.564L-85.806,-0.674C-85.869,-0.674 -85.886,-0.72 -85.869,-0.772C-85.748,-1.279 -85.292,-1.608 -84.536,-1.608C-83.781,-1.608 -83.221,-1.239 -83.221,-0.454M-83.798,1.011L-83.798,0.434C-84.071,0.417 -84.344,0.417 -84.617,0.434C-85.125,0.492 -85.431,0.671 -85.431,1.092C-85.455,1.409 -85.218,1.687 -84.9,1.711C-84.85,1.715 -84.799,1.712 -84.75,1.703C-84.319,1.699 -83.938,1.424 -83.798,1.017M-86.913,-1.729C-86.889,-1.688 -86.903,-1.635 -86.945,-1.611C-86.951,-1.607 -86.958,-1.604 -86.965,-1.602L-87.369,-1.475C-87.432,-1.475 -87.467,-1.475 -87.496,-1.527C-87.615,-1.991 -88.052,-2.3 -88.529,-2.26C-89.091,-2.335 -89.607,-1.94 -89.682,-1.378C-89.694,-1.288 -89.694,-1.197 -89.682,-1.106L-89.682,0.422C-89.757,0.985 -89.363,1.501 -88.8,1.576C-88.71,1.588 -88.619,1.588 -88.529,1.576C-87.877,1.576 -87.45,1.276 -87.45,0.601L-87.45,0.024L-88.396,0.024C-88.448,0.024 -88.477,0.024 -88.477,-0.062L-88.477,-0.379C-88.477,-0.437 -88.477,-0.466 -88.396,-0.466L-86.931,-0.466C-86.886,-0.472 -86.845,-0.442 -86.839,-0.398C-86.838,-0.392 -86.838,-0.386 -86.838,-0.379L-86.838,0.682C-86.83,1.526 -87.508,2.217 -88.353,2.225C-88.411,2.226 -88.47,2.223 -88.529,2.217C-89.402,2.319 -90.193,1.694 -90.296,0.821C-90.309,0.71 -90.31,0.597 -90.3,0.486L-90.3,-1.135C-90.382,-2.011 -89.739,-2.787 -88.864,-2.87C-88.752,-2.88 -88.64,-2.879 -88.529,-2.866C-87.792,-2.925 -87.117,-2.456 -86.913,-1.747" style="fill:white;fill-rule:nonzero;"/>
    </g>
    <g transform="matrix(1,0,0,1,434.356,53.6872)">
        <path d="M0,-25.011L-18.146,-2.516L-27.823,-14.066L-27.823,0L79.616,0L79.616,-25.011L0,-25.011Z" style="fill:white;"/>
    </g>
    <g transform="matrix(-0.707125,-0.707089,-0.707089,0.707125,401.13,11.1674)">
        <rect x="-33.677" y="-13.949" width="27.9" height="27.898" style="fill:white;"/>
    </g>
    <g transform="matrix(1,0,0,1,428.5,23.8365)">
        <path d="M0,2.435C-0.673,2.435 -1.218,1.892 -1.218,1.218C-1.218,0.544 -0.673,0 0,0C0.672,0 1.217,0.544 1.217,1.218C1.217,1.892 0.672,2.435 0,2.435" style="fill:rgb(51,51,51);fill-rule:nonzero;"/>
    </g>
    <g transform="matrix(1,0,0,1,415.782,12.3347)">
        <path d="M0,25.439C-3.398,22.041 -5.269,17.524 -5.269,12.72C-5.269,7.916 -3.398,3.398 0,0L0.572,0.573C-2.673,3.817 -4.46,8.132 -4.46,12.72C-4.46,17.307 -2.673,21.622 0.572,24.867L0,25.439Z" style="fill:rgb(51,51,51);fill-rule:nonzero;"/>
    </g>
    <g transform="matrix(1,0,0,1,418.121,14.6755)">
        <path d="M0,20.757C-2.773,17.987 -4.3,14.301 -4.3,10.379C-4.3,6.458 -2.773,2.772 0,0L0.494,0.494C-2.147,3.134 -3.601,6.644 -3.601,10.379C-3.601,14.114 -2.147,17.625 0.494,20.263L0,20.757Z" style="fill:rgb(51,51,51);fill-rule:nonzero;"/>
    </g>
    <g transform="matrix(1,0,0,1,420.523,17.078)">
        <path d="M0,15.952C-2.131,13.823 -3.304,10.99 -3.304,7.975C-3.304,4.962 -2.131,2.13 0,0L0.416,0.415C-1.604,2.435 -2.716,5.12 -2.716,7.975C-2.716,10.833 -1.604,13.518 0.416,15.535L0,15.952Z" style="fill:rgb(51,51,51);fill-rule:nonzero;"/>
    </g>
    <g transform="matrix(1,0,0,1,422.866,19.4197)">
        <path d="M0,11.27C-1.504,9.764 -2.333,7.762 -2.333,5.634C-2.333,3.506 -1.504,1.505 0,0L0.339,0.339C-1.075,1.754 -1.854,3.634 -1.854,5.634C-1.854,7.634 -1.075,9.516 0.339,10.931L0,11.27Z" style="fill:rgb(51,51,51);fill-rule:nonzero;"/>
    </g>
    <g transform="matrix(1,0,0,1,425.259,21.8137)">
        <path d="M0,6.482C-0.865,5.616 -1.342,4.464 -1.342,3.24C-1.342,2.016 -0.865,0.865 0,0L0.261,0.261C-0.536,1.056 -0.974,2.115 -0.974,3.24C-0.974,4.366 -0.535,5.425 0.261,6.221L0,6.482Z" style="fill:rgb(51,51,51);fill-rule:nonzero;"/>
    </g>
    <g transform="matrix(1,0,0,1,401.53,23.8365)">
        <path d="M0,2.435C0.672,2.435 1.217,1.892 1.217,1.218C1.217,0.544 0.672,0 0,0C-0.672,0 -1.218,0.544 -1.218,1.218C-1.218,1.892 -0.672,2.435 0,2.435" style="fill:rgb(51,51,51);fill-rule:nonzero;"/>
    </g>
    <g transform="matrix(1,0,0,1,414.248,12.3347)">
        <path d="M0,25.439L-0.572,24.867C2.672,21.621 4.459,17.307 4.459,12.72C4.459,8.132 2.672,3.818 -0.572,0.573L0,0C3.397,3.399 5.268,7.916 5.268,12.72C5.268,17.523 3.397,22.04 0,25.439" style="fill:rgb(51,51,51);fill-rule:nonzero;"/>
    </g>
    <g transform="matrix(1,0,0,1,411.909,14.6755)">
        <path d="M0,20.757L-0.494,20.263C2.145,17.625 3.599,14.115 3.599,10.379C3.599,6.644 2.145,3.133 -0.494,0.494L0,0C2.772,2.771 4.298,6.457 4.298,10.379C4.298,14.302 2.772,17.988 0,20.757" style="fill:rgb(51,51,51);fill-rule:nonzero;"/>
    </g>
    <g transform="matrix(1,0,0,1,409.507,17.0782)">
        <path d="M0,15.951L-0.416,15.535C1.603,13.516 2.715,10.832 2.715,7.975C2.715,5.121 1.603,2.436 -0.416,0.415L0,0C2.13,2.131 3.303,4.963 3.303,7.975C3.303,10.989 2.13,13.822 0,15.951" style="fill:rgb(51,51,51);fill-rule:nonzero;"/>
    </g>
    <g transform="matrix(1,0,0,1,407.164,19.4197)">
        <path d="M0,11.27L-0.339,10.931C1.075,9.516 1.853,7.634 1.853,5.634C1.853,3.634 1.075,1.754 -0.339,0.339L0,0C1.504,1.506 2.332,3.506 2.332,5.634C2.332,7.762 1.504,9.763 0,11.27" style="fill:rgb(51,51,51);fill-rule:nonzero;"/>
    </g>
    <g transform="matrix(1,0,0,1,404.771,21.8137)">
        <path d="M0,6.482L-0.261,6.221C0.535,5.425 0.974,4.366 0.974,3.24C0.974,2.115 0.536,1.056 -0.261,0.261L0,0C0.865,0.865 1.342,2.016 1.342,3.24C1.342,4.464 0.865,5.616 0,6.482" style="fill:rgb(51,51,51);fill-rule:nonzero;"/>
    </g>
    <g transform="matrix(1,0,0,1,-572.267,-94.8092)">
        <rect x="1013.16" y="129.261" width="3.271" height="12.976" style="fill:rgb(51,51,51);"/>
    </g>
    <g transform="matrix(0.999934,-0.0114796,-0.0114796,-0.999934,449.449,42.4996)">
        <path d="M-0.019,-0C-0.932,0.01 -1.684,0.78 -1.674,1.674C-1.664,2.569 -0.914,3.32 -0.019,3.31C0.895,3.3 1.646,2.531 1.636,1.636C1.626,0.742 0.857,-0.01 -0.019,-0" style="fill:rgb(51,51,51);fill-rule:nonzero;"/>
    </g>
    <g transform="matrix(1,0,0,1,459.516,47.4454)">
        <path d="M0,-12.994C1.368,-12.994 1.807,-12.956 2.531,-12.746C3.994,-12.328 5.003,-11.111 5.003,-9.759C5.003,-8.675 4.339,-7.686 3.253,-7.153C5.099,-6.582 5.993,-5.497 5.993,-3.786C5.993,-2.148 5.06,-0.855 3.443,-0.304C2.834,-0.095 2.15,0 1.009,0L-4.947,-0.018L-4.947,-12.994L0,-12.994ZM-1.654,-7.837L-0.44,-7.837C1.141,-7.837 1.75,-8.238 1.75,-9.264C1.75,-10.255 1.122,-10.673 -0.38,-10.673L-1.654,-10.673L-1.654,-7.837ZM-1.654,-2.377L-0.058,-2.377C1.979,-2.377 2.663,-2.776 2.663,-3.937C2.663,-5.137 1.979,-5.497 -0.21,-5.497L-1.654,-5.497L-1.654,-2.377Z" style="fill:rgb(51,51,51);fill-rule:nonzero;"/>
    </g>
    <g transform="matrix(0.999938,-0.0111775,-0.0111775,-0.999938,470.172,42.4997)">
        <path d="M-0.018,-0C-0.931,0.01 -1.684,0.78 -1.674,1.674C-1.664,2.568 -0.914,3.32 -0.018,3.31C0.893,3.3 1.648,2.531 1.638,1.636C1.628,0.743 0.856,-0.01 -0.018,-0" style="fill:rgb(51,51,51);fill-rule:nonzero;"/>
    </g>
    <g transform="matrix(1,0,0,1,487.938,34.4515)">
        <path d="M0,12.976L-3.482,12.976L-4.548,10.408L-10.352,10.408L-11.322,12.976L-14.747,12.976L-9.515,0L-5.766,0L0,12.976ZM-9.495,8.143L-5.499,8.143L-7.592,3.12L-9.495,8.143Z" style="fill:rgb(51,51,51);fill-rule:nonzero;"/>
    </g>
    <g transform="matrix(0.999938,-0.0111775,-0.0111775,-0.999938,490.904,42.4997)">
        <path d="M-0.018,-0C-0.931,0.01 -1.684,0.78 -1.674,1.674C-1.664,2.568 -0.912,3.32 -0.018,3.31C0.894,3.3 1.648,2.531 1.638,1.636C1.628,0.743 0.857,-0.01 -0.018,-0" style="fill:rgb(51,51,51);fill-rule:nonzero;"/>
    </g>
    <g transform="matrix(1,0,0,1,504.809,43.925)">
        <path d="M0,-5.973L-0.227,-6.087C-1.788,-6.867 -3.044,-7.229 -4.186,-7.229C-5.366,-7.229 -6.126,-6.81 -6.126,-6.183C-6.126,-5.631 -5.462,-5.154 -4.014,-4.64L-2.987,-4.26C-0.495,-3.365 0.59,-2.129 0.59,-0.169C0.59,2.133 -1.445,3.673 -4.49,3.673C-5.594,3.673 -6.602,3.465 -7.914,2.969C-8.676,2.665 -8.733,2.647 -9.075,2.418L-9.075,-0.379C-8.124,0.21 -7.629,0.496 -6.984,0.745C-6.165,1.087 -5.384,1.239 -4.585,1.239C-3.31,1.239 -2.625,0.839 -2.625,0.058C-2.625,-0.588 -3.063,-0.95 -4.376,-1.406L-5.08,-1.654C-6.088,-2.015 -6.62,-2.243 -7.23,-2.586C-7.725,-2.853 -8.124,-3.176 -8.447,-3.538C-8.98,-4.147 -9.304,-5.04 -9.304,-5.954C-9.304,-8.18 -7.362,-9.646 -4.394,-9.646C-2.95,-9.646 -1.654,-9.359 0,-8.636L0,-5.973Z" style="fill:rgb(51,51,51);fill-rule:nonzero;"/>
    </g>
</svg>
